<mxfile host="app.diagrams.net" modified="2023-05-22T04:33:20.108Z" agent="Mozilla/5.0 (Macintosh; Intel Mac OS X 10_15_7) AppleWebKit/605.1.15 (KHTML, like Gecko) Version/16.4 Safari/605.1.15" version="21.3.0" etag="14jVbHPuE08v-cxlu9mm" type="github">
  <diagram name="Page-1" id="1QfVBQEMiJpXqaAmybIp">
    <mxGraphModel>
      <root>
        <mxCell id="0" />
        <mxCell id="1" parent="0" />
      </root>
    </mxGraphModel>
  </diagram>
</mxfile>
